<?xml version="1.0" encoding="UTF-8" standalone="no"?>
<svg
   width="919.23914"
   height="408.8053"
   viewBox="0 0 919.23914 408.8053"
   fill="none"
   version="1.1"
   id="svg24"
   sodipodi:docname="OW Transparent Vector.svg"
   inkscape:version="1.1 (c68e22c387, 2021-05-23)"
   xmlns:inkscape="http://www.inkscape.org/namespaces/inkscape"
   xmlns:sodipodi="http://sodipodi.sourceforge.net/DTD/sodipodi-0.dtd"
   xmlns="http://www.w3.org/2000/svg"
   xmlns:svg="http://www.w3.org/2000/svg">
  <defs
     id="defs28" />
  <sodipodi:namedview
     id="namedview26"
     pagecolor="#ffffff"
     bordercolor="#666666"
     borderopacity="1.0"
     inkscape:pageshadow="2"
     inkscape:pageopacity="0.0"
     inkscape:pagecheckerboard="0"
     showgrid="false"
     inkscape:zoom="0.99340369"
     inkscape:cx="459.53121"
     inkscape:cy="361.88712"
     inkscape:window-width="1920"
     inkscape:window-height="1017"
     inkscape:window-x="-8"
     inkscape:window-y="-8"
     inkscape:window-maximized="1"
     inkscape:current-layer="svg24" />
  <path
     d="M 113.13712,11.71585 1.4e-4,124.85255 l 141.42098,141.422 141.422,-141.422 -113.137,-113.1367 c -15.621,-15.6209 -40.948,-15.6209 -56.569,0 z"
     fill="#185894"
     id="path4" />
  <path
     d="m 431.33512,11.71585 -113.137,113.1367 141.421,141.422 141.422,-141.422 -113.137,-113.1367 c -15.621,-15.6209 -40.948,-15.6209 -56.569,0 z"
     fill="#309975"
     id="path6" />
  <path
     d="m 749.53312,11.71595 -113.137,113.1366 141.422,141.422 141.421,-141.422 -113.137,-113.1366 c -15.621,-15.621 -40.948,-15.621 -56.569,0 z"
     fill="#489656"
     id="path8" />
  <path
     d="m 300.52012,142.53055 -141.421,141.421 113.137,113.138 c 15.621,15.62 40.948,15.62 56.569,0 l 113.137,-113.138 z"
     fill="#2d7ac1"
     id="path10" />
  <path
     d="m 618.71912,142.53055 -141.422,141.421 113.137,113.138 c 15.621,15.621 40.948,15.621 56.569,0 l 113.137,-113.138 z"
     fill="#58b368"
     id="path12" />
  <path
     d="m 300.52012,142.53055 141.422,141.421 -282.843,10e-4 z"
     fill="#ffffff"
     fill-opacity="0.15"
     id="path14" />
  <path
     d="m 749.53312,11.71595 c 15.621,-15.6209 40.948,-15.6209 56.569,0 l 113.137,113.1376 h -282.843 z"
     fill="#ffffff"
     fill-opacity="0.15"
     id="path16" />
  <path
     d="m 618.71812,142.53055 141.422,141.421 -282.843,10e-4 z"
     fill="#ffffff"
     fill-opacity="0.15"
     id="path18" />
  <path
     d="m 431.33512,11.71595 c 15.621,-15.621 40.948,-15.621 56.569,-10e-5 l 113.137,113.1367 h -282.843 z"
     fill="#ffffff"
     fill-opacity="0.15"
     id="path20" />
  <path
     d="m 113.13712,11.71575 c 15.621,-15.621 40.948,-15.621 56.568,0 l 113.138,113.1368 H 0 Z"
     fill="#ffffff"
     fill-opacity="0.15"
     id="path22" />
</svg>
